<?xml version="1.0" standalone="no"?>
<!DOCTYPE svg PUBLIC "-//W3C//DTD SVG 20010904//EN"
 "http://www.w3.org/TR/2001/REC-SVG-20010904/DTD/svg10.dtd">
<svg version="1.0" xmlns="http://www.w3.org/2000/svg"
 width="860.000000pt" height="900.000000pt" viewBox="0 0 860.000000 900.000000"
 preserveAspectRatio="xMidYMid meet">

<g transform="translate(0.000000,900.000000) scale(0.100000,-0.100000)"
fill="#000000" stroke="none">
<path d="M4300 7677 l0 -917 -167 -2 -168 -3 -3 -197 -2 -198 -184 0 c-147 0
-186 -3 -195 -14 -9 -10 -12 -66 -10 -184 1 -93 -2 -175 -6 -181 -4 -8 -62
-11 -190 -11 -102 1 -189 -1 -195 -5 -6 -4 -10 -77 -10 -201 l0 -194 -184 0
c-153 0 -186 -3 -196 -15 -10 -12 -11 -55 -6 -189 6 -161 6 -174 -11 -180 -10
-4 -97 -6 -194 -5 -97 1 -182 -2 -188 -5 -7 -5 -11 -67 -11 -189 0 -100 -4
-188 -8 -194 -6 -9 -60 -13 -192 -15 l-185 -3 -3 -582 -2 -583 192 -2 193 -3
3 -189 c2 -124 6 -194 14 -203 9 -11 49 -14 195 -12 101 1 186 -1 189 -4 3 -3
5 -80 4 -171 0 -102 3 -174 10 -186 10 -19 21 -20 395 -20 l385 0 0 -195 c0
-182 1 -195 19 -205 13 -6 146 -10 365 -10 l346 0 0 -905 0 -905 28 0 c77 0
372 22 477 36 1433 184 2659 1129 3203 2469 356 877 382 1880 72 2789 -151
442 -384 862 -688 1236 -124 153 -436 460 -592 584 -681 540 -1485 842 -2327
873 l-173 6 0 -916z"/>
</g>
</svg>
